<svg width="32" height="32" viewBox="0 0 32 32" fill="none" xmlns="http://www.w3.org/2000/svg">
  <defs>
    <linearGradient id="bgGradient" x1="0%" y1="0%" x2="100%" y2="100%">
      <stop offset="0%" style="stop-color:#0a0a0f"/>
      <stop offset="100%" style="stop-color:#1a1a2e"/>
    </linearGradient>
    <linearGradient id="primaryGradient" x1="0%" y1="0%" x2="100%" y2="100%">
      <stop offset="0%" style="stop-color:#667eea"/>
      <stop offset="100%" style="stop-color:#764ba2"/>
    </linearGradient>
    <linearGradient id="accentGradient" x1="0%" y1="0%" x2="100%" y2="100%">
      <stop offset="0%" style="stop-color:#4facfe"/>
      <stop offset="100%" style="stop-color:#00f2fe"/>
    </linearGradient>
    <filter id="glow" x="-50%" y="-50%" width="200%" height="200%">
      <feGaussianBlur stdDeviation="2" result="coloredBlur"/>
      <feMerge> 
        <feMergeNode in="coloredBlur"/>
        <feMergeNode in="SourceGraphic"/>
      </feMerge>
    </filter>
  </defs>
  
  <!-- Background -->
  <rect width="32" height="32" rx="8" fill="url(#bgGradient)"/>
  
  <!-- Neural Network Connections -->
  <path d="M6 10L12 16L18 8L26 14" stroke="url(#accentGradient)" stroke-width="1" opacity="0.3" fill="none"/>
  <path d="M4 18L10 12L16 22L24 18L28 24" stroke="url(#accentGradient)" stroke-width="1" opacity="0.2" fill="none"/>
  
  <!-- App Tiles representing instant app creation -->
  <rect x="8" y="6" width="6" height="6" rx="2" fill="url(#primaryGradient)" opacity="0.8"/>
  <rect x="18" y="4" width="6" height="6" rx="2" fill="url(#accentGradient)" opacity="0.6"/>
  <rect x="6" y="18" width="6" height="6" rx="2" fill="url(#primaryGradient)" opacity="0.6"/>
  <rect x="20" y="20" width="6" height="6" rx="2" fill="url(#accentGradient)" opacity="0.8"/>
  
  <!-- Central AI Core - stylized "A" -->
  <path d="M16 12L19 20H17.5L16.8 18H15.2L14.5 20H13L16 12Z M15.5 16.5H16.5L16 15L15.5 16.5Z" 
        fill="white" filter="url(#glow)"/>
  
  <!-- Pulsing dots representing AI activity -->
  <circle cx="11" cy="9" r="1" fill="#00f2fe" opacity="0.9"/>
  <circle cx="21" cy="7" r="1" fill="#667eea" opacity="0.7"/>
  <circle cx="9" cy="21" r="1" fill="#4facfe" opacity="0.8"/>
  <circle cx="23" cy="23" r="1" fill="#764ba2" opacity="0.9"/>
  
</svg>